<svg width="1605" height="410" viewBox="0 0 1605 410" fill="none" xmlns="http://www.w3.org/2000/svg">
<path d="M517 205C517 191.267 520.067 179 526.2 168.2C532.467 157.267 540.933 148.8 551.6 142.8C562.4 136.667 574.467 133.6 587.8 133.6C603.4 133.6 617.067 137.6 628.8 145.6C640.533 153.6 648.733 164.667 653.4 178.8H621.2C618 172.133 613.467 167.133 607.6 163.8C601.867 160.467 595.2 158.8 587.6 158.8C579.467 158.8 572.2 160.733 565.8 164.6C559.533 168.333 554.6 173.667 551 180.6C547.533 187.533 545.8 195.667 545.8 205C545.8 214.2 547.533 222.333 551 229.4C554.6 236.333 559.533 241.733 565.8 245.6C572.2 249.333 579.467 251.2 587.6 251.2C595.2 251.2 601.867 249.533 607.6 246.2C613.467 242.733 618 237.667 621.2 231H653.4C648.733 245.267 640.533 256.4 628.8 264.4C617.2 272.267 603.533 276.2 587.8 276.2C574.467 276.2 562.4 273.2 551.6 267.2C540.933 261.067 532.467 252.6 526.2 241.8C520.067 231 517 218.733 517 205ZM739.716 162.6C748.116 162.6 755.582 164.467 762.116 168.2C768.649 171.8 773.716 177.2 777.316 184.4C781.049 191.467 782.916 200 782.916 210V275H754.916V213.8C754.916 205 752.716 198.267 748.316 193.6C743.916 188.8 737.916 186.4 730.316 186.4C722.582 186.4 716.449 188.8 711.916 193.6C707.516 198.267 705.316 205 705.316 213.8V275H677.316V127H705.316V178C708.916 173.2 713.716 169.467 719.716 166.8C725.716 164 732.382 162.6 739.716 162.6ZM912.542 217.2C912.542 221.2 912.276 224.8 911.742 228H830.742C831.409 236 834.209 242.267 839.142 246.8C844.076 251.333 850.142 253.6 857.342 253.6C867.742 253.6 875.142 249.133 879.542 240.2H909.742C906.542 250.867 900.409 259.667 891.342 266.6C882.276 273.4 871.142 276.8 857.942 276.8C847.276 276.8 837.676 274.467 829.142 269.8C820.742 265 814.142 258.267 809.342 249.6C804.676 240.933 802.342 230.933 802.342 219.6C802.342 208.133 804.676 198.067 809.342 189.4C814.009 180.733 820.542 174.067 828.942 169.4C837.342 164.733 847.009 162.4 857.942 162.4C868.476 162.4 877.876 164.667 886.142 169.2C894.542 173.733 901.009 180.2 905.542 188.6C910.209 196.867 912.542 206.4 912.542 217.2ZM883.542 209.2C883.409 202 880.809 196.267 875.742 192C870.676 187.6 864.476 185.4 857.142 185.4C850.209 185.4 844.342 187.533 839.542 191.8C834.876 195.933 832.009 201.733 830.942 209.2H883.542ZM925.78 219.6C925.78 208.133 928.113 198.133 932.78 189.6C937.446 180.933 943.913 174.267 952.18 169.6C960.446 164.8 969.913 162.4 980.58 162.4C994.313 162.4 1005.65 165.867 1014.58 172.8C1023.65 179.6 1029.71 189.2 1032.78 201.6H1002.58C1000.98 196.8 998.246 193.067 994.38 190.4C990.646 187.6 985.98 186.2 980.38 186.2C972.38 186.2 966.046 189.133 961.38 195C956.713 200.733 954.38 208.933 954.38 219.6C954.38 230.133 956.713 238.333 961.38 244.2C966.046 249.933 972.38 252.8 980.38 252.8C991.713 252.8 999.113 247.733 1002.58 237.6H1032.78C1029.71 249.6 1023.65 259.133 1014.58 266.2C1005.51 273.267 994.18 276.8 980.58 276.8C969.913 276.8 960.446 274.467 952.18 269.8C943.913 265 937.446 258.333 932.78 249.8C928.113 241.133 925.78 231.067 925.78 219.6ZM1118.89 275L1081.29 227.8V275H1053.29V127H1081.29V211.2L1118.49 164.2H1154.89L1106.09 219.8L1155.29 275H1118.89ZM1289.75 275L1258.95 220.6H1245.75V275H1217.75V135.4H1270.15C1280.95 135.4 1290.15 137.333 1297.75 141.2C1305.35 144.933 1311.01 150.067 1314.75 156.6C1318.61 163 1320.55 170.2 1320.55 178.2C1320.55 187.4 1317.88 195.733 1312.55 203.2C1307.21 210.533 1299.28 215.6 1288.75 218.4L1322.15 275H1289.75ZM1245.75 199.6H1269.15C1276.75 199.6 1282.41 197.8 1286.15 194.2C1289.88 190.467 1291.75 185.333 1291.75 178.8C1291.75 172.4 1289.88 167.467 1286.15 164C1282.41 160.4 1276.75 158.6 1269.15 158.6H1245.75V199.6ZM1440.87 135.4V158H1403.67V275H1375.67V158H1338.47V135.4H1440.87ZM1526.1 276.4C1513.03 276.4 1501.03 273.333 1490.1 267.2C1479.17 261.067 1470.5 252.6 1464.1 241.8C1457.7 230.867 1454.5 218.533 1454.5 204.8C1454.5 191.2 1457.7 179 1464.1 168.2C1470.5 157.267 1479.17 148.733 1490.1 142.6C1501.03 136.467 1513.03 133.4 1526.1 133.4C1539.3 133.4 1551.3 136.467 1562.1 142.6C1573.03 148.733 1581.63 157.267 1587.9 168.2C1594.3 179 1597.5 191.2 1597.5 204.8C1597.5 218.533 1594.3 230.867 1587.9 241.8C1581.63 252.6 1573.03 261.067 1562.1 267.2C1551.17 273.333 1539.17 276.4 1526.1 276.4ZM1526.1 251.4C1534.5 251.4 1541.9 249.533 1548.3 245.8C1554.7 241.933 1559.7 236.467 1563.3 229.4C1566.9 222.333 1568.7 214.133 1568.7 204.8C1568.7 195.467 1566.9 187.333 1563.3 180.4C1559.7 173.333 1554.7 167.933 1548.3 164.2C1541.9 160.467 1534.5 158.6 1526.1 158.6C1517.7 158.6 1510.23 160.467 1503.7 164.2C1497.3 167.933 1492.3 173.333 1488.7 180.4C1485.1 187.333 1483.3 195.467 1483.3 204.8C1483.3 214.133 1485.1 222.333 1488.7 229.4C1492.3 236.467 1497.3 241.933 1503.7 245.8C1510.23 249.533 1517.7 251.4 1526.1 251.4Z" fill="black"/>
<path d="M374.244 162.873C382.179 162.873 404.309 162.959 409.372 162.873C409.372 162.873 418.663 99.6351 365.751 42.4236C320.535 -6.47953 239.911 0.322149 239.911 0.322149C239.911 7.25297 239.911 27.3136 239.911 38.0327C239.911 41.003 305.662 34.4596 340.392 71.9549C375.121 109.45 371.054 162.916 374.244 162.916V162.873Z" fill="#0040B8"/>
<path d="M35.5432 162.873C27.6556 162.873 5.6576 162.959 0.623816 162.873C0.623816 162.873 -8.61138 99.6351 43.9857 42.4236C88.933 -6.47953 169.077 0.322149 169.077 0.322149C169.077 7.25297 169.077 27.3136 169.077 38.0327C169.077 41.003 103.717 34.4596 69.1942 71.9549C34.6712 109.45 38.7141 162.916 35.5432 162.916V162.873Z" fill="#0040B8"/>
<path d="M374.244 247.127C382.179 247.127 404.309 247.04 409.372 247.127C409.372 247.127 418.663 310.365 365.751 367.576C320.535 416.479 239.911 409.678 239.911 409.678C239.911 402.747 239.911 382.686 239.911 371.967C239.911 368.997 305.662 375.54 340.392 338.045C375.121 300.55 371.054 247.083 374.244 247.083V247.127Z" fill="#0040B8"/>
<path d="M35.5432 247.127C27.6556 247.127 5.6576 247.04 0.623816 247.127C0.623816 247.127 -8.61138 310.365 43.9857 367.576C88.933 416.479 169.077 409.678 169.077 409.678C169.077 402.747 169.077 382.686 169.077 371.967C169.077 368.997 103.717 375.54 69.1942 338.045C34.6712 300.55 38.7141 247.083 35.5432 247.083V247.127Z" fill="#0040B8"/>
<path d="M208.26 288.64C192.86 288.64 179.587 285.34 168.44 278.74C157.44 271.993 148.933 262.68 142.92 250.8C137.053 238.773 134.12 224.913 134.12 209.22C134.12 193.527 137.053 179.667 142.92 167.64C148.933 155.613 157.44 146.227 168.44 139.48C179.587 132.733 192.86 129.36 208.26 129.36C226.887 129.36 242.14 133.98 254.02 143.22C265.9 152.46 273.307 165.513 276.24 182.38H243.9C241.993 174.167 237.96 167.787 231.8 163.24C225.787 158.547 217.867 156.2 208.04 156.2C198.947 156.2 191.1 158.4 184.5 162.8C178.047 167.053 173.06 173.14 169.54 181.06C166.02 188.833 164.26 198.22 164.26 209.22C164.26 220.073 166.02 229.46 169.54 237.38C173.06 245.3 178.047 251.387 184.5 255.64C191.1 259.893 198.947 262.02 208.04 262.02C217.867 262.02 225.787 259.893 231.8 255.64C237.813 251.24 241.773 245.153 243.68 237.38H276.24C273.307 253.367 265.9 265.907 254.02 275C242.14 284.093 226.887 288.64 208.26 288.64Z" fill="#0040B8"/>
</svg>
