<svg width="121" height="24" viewBox="0 0 121 24" fill="none" xmlns="http://www.w3.org/2000/svg">
<path d="M21.9071 9.53405C22.3716 9.53405 23.667 9.53909 23.9634 9.53405C23.9634 9.53405 24.5073 5.8323 21.41 2.48333C18.7632 -0.379289 14.0437 0.0188575 14.0437 0.0188575C14.0437 0.424564 14.0437 1.59884 14.0437 2.2263C14.0437 2.40018 17.8926 2.01715 19.9255 4.212C21.9585 6.40684 21.7204 9.53657 21.9071 9.53657V9.53405Z" fill="#0040B8"/>
<path d="M11.6 16.8721C11.5908 16.4855 11.6195 15.8956 11.6195 15.5409V15.4764C11.561 15.4764 11.4502 15.484 11.3853 15.4764C10.8847 15.441 9.64165 15.2348 9.03676 13.8982C8.59873 12.9456 8.57787 11.8339 8.80036 10.8004C9.24765 9.09997 10.3741 8.51203 11.5317 8.51203C11.5985 8.51203 11.5902 8.51203 11.5902 8.35081C11.5902 8.06545 11.5902 7.28681 11.5931 7.02807C11.5951 6.84615 11.6195 6.84891 11.4934 6.84615C10.1075 6.81583 7.38894 7.87199 7.09692 11.0784C6.96482 12.3948 7.07838 13.7921 7.71572 14.9442C8.83049 17.0161 11.0438 17.1425 11.4957 17.15C11.6023 17.1551 11.5902 17.153 11.6 16.8721Z" fill="#0040B8"/>
<path d="M12.3439 6.87066C14.6135 6.68731 16.8808 7.47596 16.8903 10.2639C16.9284 10.6632 16.6164 10.5201 16.1854 10.5577C15.8734 10.5577 15.5399 10.5402 15.3899 10.4975C15.2923 10.4698 15.2732 10.3643 15.2637 10.1986C15.2375 9.56313 15.1279 9.20397 14.6921 8.91011C14.1086 8.52583 13.1726 8.56853 12.4605 8.53587C12.3748 8.53336 12.3391 8.5208 12.3319 8.44043C12.3272 8.19429 12.3319 7.24991 12.3415 6.87819V6.86814L12.3439 6.87066Z" fill="#0040B8"/>
<path d="M12.4025 17.1881C14.6427 17.3778 16.8805 16.562 16.8899 13.6779C16.9275 13.2648 16.6196 13.4129 16.1941 13.3739C15.8862 13.3739 15.5571 13.3921 15.409 13.4363C15.3126 13.4648 15.2938 13.574 15.2844 13.7455C15.2586 14.4028 15.1504 14.7744 14.7203 15.0784C14.1444 15.4759 13.2206 15.4317 12.5177 15.4655C12.4331 15.4681 12.3978 15.4811 12.3908 15.5642C12.3861 15.8189 12.3908 16.7958 12.4002 17.1803V17.1907L12.4025 17.1881Z" fill="#0040B8"/>
<path d="M2.08058 9.53405C1.61887 9.53405 0.331177 9.53909 0.0365161 9.53405C0.0365161 9.53405 -0.504082 5.8323 2.57478 2.48333C5.20584 -0.379289 9.89721 0.0188575 9.89721 0.0188575C9.89721 0.424564 9.89721 1.59884 9.89721 2.2263C9.89721 2.40018 6.07126 2.01715 4.0504 4.212C2.02953 6.40684 2.26619 9.53657 2.08058 9.53657V9.53405Z" fill="#0040B8"/>
<path d="M21.9071 14.4659C22.3716 14.4659 23.667 14.4609 23.9634 14.4659C23.9634 14.4659 24.5073 18.1677 21.41 21.5167C18.7632 24.3793 14.0437 23.9811 14.0437 23.9811C14.0437 23.5754 14.0437 22.4012 14.0437 21.7737C14.0437 21.5998 17.8926 21.9828 19.9255 19.788C21.9585 17.5932 21.7204 14.4634 21.9071 14.4634V14.4659Z" fill="#0040B8"/>
<path d="M2.08058 14.4659C1.61887 14.4659 0.331177 14.4609 0.0365161 14.4659C0.0365161 14.4659 -0.504082 18.1677 2.57478 21.5167C5.20584 24.3793 9.89721 23.9811 9.89721 23.9811C9.89721 23.5754 9.89721 22.4012 9.89721 21.7737C9.89721 21.5998 6.07126 21.9828 4.0504 19.788C2.02953 17.5932 2.26619 14.4634 2.08058 14.4634V14.4659Z" fill="#0040B8"/>
<path d="M34.56 12.4C34.56 11.3013 34.8053 10.32 35.296 9.456C35.7973 8.58133 36.4747 7.904 37.328 7.424C38.192 6.93333 39.1573 6.688 40.224 6.688C41.472 6.688 42.5653 7.008 43.504 7.648C44.4427 8.288 45.0987 9.17333 45.472 10.304H42.896C42.64 9.77067 42.2773 9.37067 41.808 9.104C41.3493 8.83733 40.816 8.704 40.208 8.704C39.5573 8.704 38.976 8.85867 38.464 9.168C37.9627 9.46667 37.568 9.89333 37.28 10.448C37.0027 11.0027 36.864 11.6533 36.864 12.4C36.864 13.136 37.0027 13.7867 37.28 14.352C37.568 14.9067 37.9627 15.3387 38.464 15.648C38.976 15.9467 39.5573 16.096 40.208 16.096C40.816 16.096 41.3493 15.9627 41.808 15.696C42.2773 15.4187 42.64 15.0133 42.896 14.48H45.472C45.0987 15.6213 44.4427 16.512 43.504 17.152C42.576 17.7813 41.4827 18.096 40.224 18.096C39.1573 18.096 38.192 17.856 37.328 17.376C36.4747 16.8853 35.7973 16.208 35.296 15.344C34.8053 14.48 34.56 13.4987 34.56 12.4ZM52.3773 9.008C53.0493 9.008 53.6466 9.15733 54.1693 9.456C54.6919 9.744 55.0973 10.176 55.3853 10.752C55.6839 11.3173 55.8333 12 55.8333 12.8V18H53.5933V13.104C53.5933 12.4 53.4173 11.8613 53.0653 11.488C52.7133 11.104 52.2333 10.912 51.6253 10.912C51.0066 10.912 50.5159 11.104 50.1533 11.488C49.8013 11.8613 49.6253 12.4 49.6253 13.104V18H47.3853V6.16H49.6253V10.24C49.9133 9.856 50.2973 9.55733 50.7773 9.344C51.2573 9.12 51.7906 9.008 52.3773 9.008ZM66.2034 13.376C66.2034 13.696 66.182 13.984 66.1394 14.24H59.6594C59.7127 14.88 59.9367 15.3813 60.3314 15.744C60.726 16.1067 61.2114 16.288 61.7874 16.288C62.6194 16.288 63.2114 15.9307 63.5634 15.216H65.9794C65.7234 16.0693 65.2327 16.7733 64.5074 17.328C63.782 17.872 62.8914 18.144 61.8354 18.144C60.982 18.144 60.214 17.9573 59.5314 17.584C58.8594 17.2 58.3314 16.6613 57.9474 15.968C57.574 15.2747 57.3874 14.4747 57.3874 13.568C57.3874 12.6507 57.574 11.8453 57.9474 11.152C58.3207 10.4587 58.8434 9.92533 59.5154 9.552C60.1874 9.17867 60.9607 8.992 61.8354 8.992C62.678 8.992 63.43 9.17333 64.0914 9.536C64.7634 9.89867 65.2807 10.416 65.6434 11.088C66.0167 11.7493 66.2034 12.512 66.2034 13.376ZM63.8834 12.736C63.8727 12.16 63.6647 11.7013 63.2594 11.36C62.854 11.008 62.358 10.832 61.7714 10.832C61.2167 10.832 60.7474 11.0027 60.3634 11.344C59.99 11.6747 59.7607 12.1387 59.6754 12.736H63.8834ZM67.2624 13.568C67.2624 12.6507 67.449 11.8507 67.8224 11.168C68.1957 10.4747 68.713 9.94133 69.3744 9.568C70.0357 9.184 70.793 8.992 71.6464 8.992C72.745 8.992 73.6517 9.26933 74.3664 9.824C75.0917 10.368 75.577 11.136 75.8224 12.128H73.4064C73.2784 11.744 73.0597 11.4453 72.7504 11.232C72.4517 11.008 72.0784 10.896 71.6304 10.896C70.9904 10.896 70.4837 11.1307 70.1104 11.6C69.737 12.0587 69.5504 12.7147 69.5504 13.568C69.5504 14.4107 69.737 15.0667 70.1104 15.536C70.4837 15.9947 70.9904 16.224 71.6304 16.224C72.537 16.224 73.129 15.8187 73.4064 15.008H75.8224C75.577 15.968 75.0917 16.7307 74.3664 17.296C73.641 17.8613 72.7344 18.144 71.6464 18.144C70.793 18.144 70.0357 17.9573 69.3744 17.584C68.713 17.2 68.1957 16.6667 67.8224 15.984C67.449 15.2907 67.2624 14.4853 67.2624 13.568ZM82.7114 18L79.7034 14.224V18H77.4634V6.16H79.7034V12.896L82.6794 9.136H85.5914L81.6874 13.584L85.6234 18H82.7114ZM96.3796 18L93.9156 13.648H92.8596V18H90.6196V6.832H94.8116C95.6756 6.832 96.4116 6.98667 97.0196 7.296C97.6276 7.59467 98.081 8.00533 98.3796 8.528C98.689 9.04 98.8436 9.616 98.8436 10.256C98.8436 10.992 98.6303 11.6587 98.2036 12.256C97.777 12.8427 97.1423 13.248 96.2996 13.472L98.9716 18H96.3796ZM92.8596 11.968H94.7316C95.3396 11.968 95.793 11.824 96.0916 11.536C96.3903 11.2373 96.5396 10.8267 96.5396 10.304C96.5396 9.792 96.3903 9.39733 96.0916 9.12C95.793 8.832 95.3396 8.688 94.7316 8.688H92.8596V11.968ZM108.47 6.832V8.64H105.494V18H103.254V8.64H100.278V6.832H108.47ZM115.288 18.112C114.243 18.112 113.283 17.8667 112.408 17.376C111.533 16.8853 110.84 16.208 110.328 15.344C109.816 14.4693 109.56 13.4827 109.56 12.384C109.56 11.296 109.816 10.32 110.328 9.456C110.84 8.58133 111.533 7.89867 112.408 7.408C113.283 6.91733 114.243 6.672 115.288 6.672C116.344 6.672 117.304 6.91733 118.168 7.408C119.043 7.89867 119.731 8.58133 120.232 9.456C120.744 10.32 121 11.296 121 12.384C121 13.4827 120.744 14.4693 120.232 15.344C119.731 16.208 119.043 16.8853 118.168 17.376C117.293 17.8667 116.333 18.112 115.288 18.112ZM115.288 16.112C115.96 16.112 116.552 15.9627 117.064 15.664C117.576 15.3547 117.976 14.9173 118.264 14.352C118.552 13.7867 118.696 13.1307 118.696 12.384C118.696 11.6373 118.552 10.9867 118.264 10.432C117.976 9.86667 117.576 9.43467 117.064 9.136C116.552 8.83733 115.96 8.688 115.288 8.688C114.616 8.688 114.019 8.83733 113.496 9.136C112.984 9.43467 112.584 9.86667 112.296 10.432C112.008 10.9867 111.864 11.6373 111.864 12.384C111.864 13.1307 112.008 13.7867 112.296 14.352C112.584 14.9173 112.984 15.3547 113.496 15.664C114.019 15.9627 114.616 16.112 115.288 16.112Z" fill="black"/>
</svg>
