<svg width="410" height="410" viewBox="0 0 410 410" fill="none" xmlns="http://www.w3.org/2000/svg">
<path d="M374.244 162.873C382.179 162.873 404.309 162.959 409.372 162.873C409.372 162.873 418.663 99.6351 365.751 42.4236C320.535 -6.47953 239.911 0.322149 239.911 0.322149C239.911 7.25297 239.911 27.3136 239.911 38.0327C239.911 41.003 305.662 34.4596 340.392 71.9549C375.121 109.45 371.054 162.916 374.244 162.916V162.873Z" fill="#0040B8"/>
<path d="M35.5432 162.873C27.6556 162.873 5.6576 162.959 0.623816 162.873C0.623816 162.873 -8.61138 99.6351 43.9857 42.4236C88.933 -6.47953 169.077 0.322149 169.077 0.322149C169.077 7.25297 169.077 27.3136 169.077 38.0327C169.077 41.003 103.717 34.4596 69.1942 71.9549C34.6712 109.45 38.7141 162.916 35.5432 162.916V162.873Z" fill="#0040B8"/>
<path d="M374.244 247.127C382.179 247.127 404.309 247.04 409.372 247.127C409.372 247.127 418.663 310.365 365.751 367.576C320.535 416.479 239.911 409.678 239.911 409.678C239.911 402.747 239.911 382.686 239.911 371.967C239.911 368.997 305.662 375.54 340.392 338.045C375.121 300.55 371.054 247.083 374.244 247.083V247.127Z" fill="#0040B8"/>
<path d="M35.5432 247.127C27.6556 247.127 5.6576 247.04 0.623816 247.127C0.623816 247.127 -8.61138 310.365 43.9857 367.576C88.933 416.479 169.077 409.678 169.077 409.678C169.077 402.747 169.077 382.686 169.077 371.967C169.077 368.997 103.717 375.54 69.1942 338.045C34.6712 300.55 38.7141 247.083 35.5432 247.083V247.127Z" fill="#0040B8"/>
<path d="M208.26 288.64C192.86 288.64 179.587 285.34 168.44 278.74C157.44 271.993 148.933 262.68 142.92 250.8C137.053 238.773 134.12 224.913 134.12 209.22C134.12 193.527 137.053 179.667 142.92 167.64C148.933 155.613 157.44 146.227 168.44 139.48C179.587 132.733 192.86 129.36 208.26 129.36C226.887 129.36 242.14 133.98 254.02 143.22C265.9 152.46 273.307 165.513 276.24 182.38H243.9C241.993 174.167 237.96 167.787 231.8 163.24C225.787 158.547 217.867 156.2 208.04 156.2C198.947 156.2 191.1 158.4 184.5 162.8C178.047 167.053 173.06 173.14 169.54 181.06C166.02 188.833 164.26 198.22 164.26 209.22C164.26 220.073 166.02 229.46 169.54 237.38C173.06 245.3 178.047 251.387 184.5 255.64C191.1 259.893 198.947 262.02 208.04 262.02C217.867 262.02 225.787 259.893 231.8 255.64C237.813 251.24 241.773 245.153 243.68 237.38H276.24C273.307 253.367 265.9 265.907 254.02 275C242.14 284.093 226.887 288.64 208.26 288.64Z" fill="#0040B8"/>
</svg>
