<svg width="80" height="80" viewBox="0 0 80 80" fill="none" xmlns="http://www.w3.org/2000/svg">
<rect width="80" height="80" rx="40" fill="#0040B8" fill-opacity="0.2"/>
<path d="M50.9137 46.3378L46.187 43.6089C45.6203 43.2817 45.4319 42.5228 45.7714 41.9349L51.5586 31.911C52.1713 30.8499 53.1434 30.0918 54.2926 29.761C55.4418 29.4303 56.6356 29.565 57.6583 30.1555L57.6721 30.1635C59.3915 31.1752 60.6166 32.8194 61.1236 34.8139C61.6141 36.837 61.2978 38.9488 60.2629 40.7414L58.2593 44.2117C56.6255 47.0734 53.664 47.9257 50.9137 46.3378ZM48.4655 42.0563L52.1556 44.1868C53.7588 45.1124 55.2396 44.6862 56.2 43.0228L58.2036 39.5524C58.9156 38.3192 59.1246 36.872 58.7948 35.4961C58.4485 34.1489 57.6106 33.0151 56.4302 32.3145C56.4302 32.3145 56.4302 32.3145 56.4164 32.3065C55.9603 32.0432 55.4104 31.9742 54.88 32.1269C54.3496 32.2796 53.9133 32.6204 53.6318 33.108L48.4655 42.0563Z" fill="#0040B8"/>
<path d="M25.9049 54.485C25.2225 54.091 24.7343 53.4613 24.5396 52.692L23.5265 48.8804C23.4711 48.6745 23.2763 48.5427 23.0642 48.5748L19.5104 48.9962C18.4062 49.1316 17.3312 48.6462 16.711 47.7085C16.0909 46.7708 16.0557 45.5911 16.6162 44.6202L29.166 22.8833C31.6927 18.507 35.652 17.4502 40.0369 19.9819L57.4603 30.0413C58.0556 30.385 58.2648 31.1627 57.9218 31.7568C57.5788 32.351 56.8006 32.5586 56.2053 32.215C55.2035 31.6365 53.9219 31.9786 53.3446 32.9785L39.1215 57.6136C38.5609 58.5846 37.5217 59.1438 36.3995 59.0756C35.2918 59.0157 34.3196 58.3192 33.8847 57.2952L32.4728 54.0069C32.3945 53.8071 32.1745 53.7187 31.9914 53.7676L28.1466 54.7938C27.3768 54.987 26.5873 54.879 25.9049 54.485ZM24.5642 46.446C25.2321 46.8316 25.7432 47.4552 25.9441 48.2474L26.9571 52.059C26.994 52.1962 27.1018 52.2778 27.1599 52.3113C27.218 52.3448 27.3425 52.3974 27.4798 52.3608L31.3247 51.3345C32.7436 50.9558 34.2168 51.6904 34.7752 53.0369L36.1809 56.3023C36.2737 56.5105 36.444 56.5508 36.5417 56.5493C36.6394 56.5477 36.8203 56.5362 36.929 56.3478L51.1521 31.7127C51.5286 31.0606 52.0481 30.5297 52.6335 30.1528L38.7674 22.1471C35.5441 20.2862 33.1868 20.9153 31.3294 24.1324L18.7796 45.8693C18.6625 46.0721 18.743 46.2345 18.7905 46.3199C18.8525 46.4137 18.981 46.5265 19.1931 46.4944L22.7468 46.073C23.3893 45.9995 24.0269 46.1358 24.5642 46.446Z" fill="#0040B8"/>
<path d="M41.887 37.3615L32.8527 32.1455C32.2353 31.7891 31.9697 31.0669 32.2667 30.5524C32.5637 30.038 33.322 29.9069 33.9394 30.2633L42.9737 35.4793C43.5911 35.8357 43.8567 36.5579 43.5597 37.0724C43.2627 37.5869 42.5044 37.7179 41.887 37.3615Z" fill="#0040B8"/>
<path d="M37.6385 42.4391L30.5804 38.3641C29.9373 37.9928 29.6504 37.2583 29.9474 36.7438C30.2444 36.2294 31.024 36.1106 31.6671 36.4819L38.7252 40.5569C39.3682 40.9282 39.6552 41.6627 39.3582 42.1771C39.0612 42.6916 38.2816 42.8103 37.6385 42.4391Z" fill="#0040B8"/>
</svg>
