<svg width="56" height="56" viewBox="0 0 56 56" fill="none" xmlns="http://www.w3.org/2000/svg">
<rect width="56" height="56" rx="28" fill="#0040B8" fill-opacity="0.1"/>
<path d="M33.125 20.3829C33.6432 20.3829 34.1499 20.2354 34.5811 19.9591L38.375 17.5277V29.2149C38.375 29.9117 37.7874 30.4766 37.0625 30.4766H35.75V33H37.0625C39.2371 33 41 31.3053 41 29.2149V17.5277C41 15.5122 38.6634 14.3101 36.9189 15.4281L33.125 17.8595H23.9375C21.7629 17.8595 20 19.5541 20 21.6446V22.9063H22.625V21.6446C22.625 20.9478 23.2126 20.3829 23.9375 20.3829H33.125Z" fill="#0040B8"/>
<path fill-rule="evenodd" clip-rule="evenodd" d="M19.9227 36.5733C20.3881 36.2044 20.9664 36.0034 21.5625 36.0034H32.0625C32.7874 36.0034 33.375 35.4212 33.375 34.7031V26.901C33.375 26.1829 32.7874 25.6007 32.0625 25.6007H18.9375C18.2126 25.6007 17.625 26.1829 17.625 26.901V38.3944L19.9227 36.5733ZM21.5625 38.6041H32.0625C34.2371 38.6041 36 36.8576 36 34.7031V26.901C36 24.7465 34.2371 23 32.0625 23H18.9375C16.7629 23 15 24.7465 15 26.901V38.3944C15 40.5751 17.5461 41.7875 19.2648 40.4252L21.5625 38.6041Z" fill="#0040B8"/>
<path fill-rule="evenodd" clip-rule="evenodd" d="M20 29.5C20 28.6716 20.5596 28 21.25 28H28.75C29.4404 28 30 28.6716 30 29.5C30 30.3284 29.4404 31 28.75 31H21.25C20.5596 31 20 30.3284 20 29.5Z" fill="#0040B8"/>
</svg>
